# xmcd CD database file
#
# Track frame offsets:
#	150
#	14885
#	27270
#	40963
#	50527
#	65797
#	77778
#	90129
#	104663
#	117327
#	134971
#	153998
#
# Disc length: 2319 seconds
#
# Revision: 0
# Processed by: cddbd v1.5.2PL0 Copyright (c) Steve Scherf et al.
# Submitted via: CDex 1.51
#
DISCID=aa090d0c
DTITLE=Sean Wheeler and Zander Schlosss - Pascal Briggs - Split Record
DYEAR=2011
DGENRE=Blues
TTITLE0=comin as i'm goin
TTITLE1=phantom switch man
TTITLE2=walk thee invisible
TTITLE3=good pussy
TTITLE4=freedoms outlawed
TTITLE5=thirteen days
TTITLE6=blackheart
TTITLE7=millionaire
TTITLE8=downpresser man
TTITLE9=days like honey
TTITLE10=brothers and sisters
TTITLE11=if you wanna leave
EXTD=YEAR: 2011
EXTT0=
EXTT1=
EXTT2=
EXTT3=
EXTT4=
EXTT5=
EXTT6=
EXTT7=
EXTT8=
EXTT9=
EXTT10=
EXTT11=
PLAYORDER=
